<?xml version="1.0" encoding="UTF-8" standalone="no"?>
<!-- Created with Inkscape (http://www.inkscape.org/) -->

<svg
   version="1.1"
   id="svg2"
   width="223.1017"
   height="220.58353"
   viewBox="0 0 223.1017 220.58353"
   sodipodi:docname="Tu Logo.png"
   xmlns:inkscape="http://www.inkscape.org/namespaces/inkscape"
   xmlns:sodipodi="http://sodipodi.sourceforge.net/DTD/sodipodi-0.dtd"
   xmlns="http://www.w3.org/2000/svg"
   xmlns:svg="http://www.w3.org/2000/svg">
  <defs
     id="defs6" />
  <sodipodi:namedview
     id="namedview4"
     pagecolor="#ffffff"
     bordercolor="#000000"
     borderopacity="0.25"
     inkscape:showpageshadow="2"
     inkscape:pageopacity="0.0"
     inkscape:pagecheckerboard="0"
     inkscape:deskcolor="#d1d1d1"
     showgrid="false" />
  <g
     inkscape:groupmode="layer"
     inkscape:label="Image"
     id="g8"
     transform="translate(-11.333327,-136.61905)">
    <path
       style="fill:#9d9d6d;stroke:none"
       d="m 11.333327,136.61905 v 11 l 12,-2 -1,38 h 13 l -1,-38 12,2 v -11 h -35 m 86,0 c 3.229003,13.561 2.539,33.323 0,47 h 33.000003 v -11 l -21,2 1,-38 H 97.333327 m 98.000003,4 c -4.96499,11.187 -16.619,4.991 -23.351,14.044 -1.496,2.011 -2.601,4.5 -3.105,6.956 -5.084,24.793 38.287,21.329 28.447,-3 -1.45099,-3.586 -4.344,-6.289 -6.991,-9 5.597,-0.135 9.074,-1.47 11,-7 l -6,-2 m -50,8.533 c -20.22999,4.885 -13.482,40.201 8,34.535 20.52,-5.413 13.437,-39.711 -8,-34.535 m 70,-0.061 c -20.115,3.659 -16.033,38.041 5,35.021 21.655,-3.109 17.098,-39.041 -5,-35.021 m -170.000003,4.528 v 1 c 7.465,6.588 1.28,16.858 5.573,24.892 5.617,10.513 15.281,1.539 17.427,-5.892 h 1 c 0.031,10.745 4.377,11.031 13,6 -5.564,-7.707 -3,-20.844 -3,-30 l -14,4 c 2.952,4.977 5.225,10.045 3.566,15.995 -0.833,2.99 -3.919,6.778 -7.249,4.343 -4.956,-3.626 -2.317,-18.809 -2.317,-24.338 l -14,4 m 104.000003,4.662 c 8.226,-0.801 8.191,16.471 0.011,16.471 -8.113,0 -7.87001,-15.705 -0.011,-16.471 m 34.09,0.09 c 6.312,-0.171 6.229,11.612 -0.051,11.612 -5.529,0 -5.325,-11.467 0.051,-11.612 m 33.95001,-0.04 c 8.37,-2.329 9.64599,14.685 1.94499,16.317 -8.333,1.766 -9.274,-14.278 -1.94499,-16.317 m -19.04001,39.288 c 0.306,-3.884 2.182,-9.446 -2.148,-11.782 -5.041,-2.719 -24.573,7.601 -17.852,-6.218 -8.199,1.655 -13.641,13.727 -3.906,17.851 8.172,3.462 15.332,-3.983 23.906,0.149 m -96,19 12,25 h 1 l -3,-28 -10,3 m 23,-3 -3,28 h 1 l 12,-25 -10,-3 m -39.000003,19 c 9.856,4.254 19.380003,13.291 24.000003,23 2.167,-10.32 -19.054003,-43.787 -24.000003,-23 m 40.000003,23 h 1 c 5.919,-10.62 14.692,-17.92 25,-24 -11.005,-18.969 -23.31099,14.15 -26,24 m -46.000003,-13 c -0.514,24.921 8.676,48.919 38.000003,49 -5.211,-20.133 -14.071,-45.413 -38.000003,-49 m 40.000003,49 c 27.313,-0.226 40.093,-24.524 37,-49 -21.48,4.972 -36.06599,27.574 -37,49 m -31.000003,65 h 13.000003 l -5.000003,-14 h 13.000003 l -1,14 h 14 c -3.14599,-9.924 -2,-20.686 -2,-31 0,-3.991 1.16201,-10.292 -1.603,-13.581 -6.964,-8.283 -21.854003,-0.814 -27.007003,5.596 -9.296,11.565 -6.101,25.844 -3.39,38.985 m 110.000003,-14 c -4.72699,2.843 -20.764,9.968 -22.369,-1.024 -1.237,-8.475 13.931,-3.895 17.369,-2.976 0,-2.968 0.873,-7.781 -1.028,-10.297 -7.156,-9.47 -17.42499,3.786 -18.972,10.297 h -1 c 0.002,-17.323 11.068,-24.701 26,-15 4.954,-15.267 -12.598,-17.318 -24,-12.521 -10.64299,4.478 -14.557,16.787 -12.671,27.521 1.782,10.145 9.79501,16.823 19.671,18.231 11.312,1.612 20.916,-2.164 17,-14.231 m -162.000003,-33 c 3.229,13.561 2.539,33.323 0,47 h 13 l -1,-26 h 1 l 9,23 h 2 l 9,-23 h 1 l -1,26 h 13 c -2.539,-13.677 -3.229,-33.439 0,-47 l -11.606,1.028 -12.394,22.972 c -2.469,-13.851 -7.719,-24 -22,-24 m 87.000003,0 v 11 l 12,-2 -1,38 h 13 l -1,-38 12,2 v -11 h -35 m -14,9 v 15 H 97.333327 c 1.759,-7.581 4.822003,-13.518 13.000003,-15 z"
       id="path174"
       inkscape:export-filename="Tu Logo.svg"
       inkscape:export-xdpi="96"
       inkscape:export-ydpi="96" />
  </g>
</svg>
